<svg xmlns="http://www.w3.org/2000/svg" viewBox="0 0 400 500" width="800" height="1000"><defs><filter id="soft" x="-20%" y="-20%" width="140%" height="140%"><feGaussianBlur stdDeviation="9"/></filter><linearGradient id="tapeShade" x1="0" y1="0" x2="0" y2="1"><stop offset="0" stop-color="#fff" stop-opacity=".18"/><stop offset=".5" stop-color="#fff" stop-opacity="0"/><stop offset="1" stop-color="#000" stop-opacity=".12"/></linearGradient></defs><rect width="400" height="500" fill="#F4F3F3"/><path d="M16 34 L16 16 L34 16 M366 16 L384 16 L384 34 M16 466 L16 484 L34 484 M366 484 L384 484 L384 466" fill="none" stroke="#111" stroke-width="1" opacity=".5"/><text x="26" y="36" font-family="Menlo,'SF Mono',ui-monospace,monospace" font-size="9.5" fill="#111" opacity=".7">drop: 01</text><text x="374" y="36" text-anchor="end" font-family="Menlo,'SF Mono',ui-monospace,monospace" font-size="9.5" fill="#111" opacity=".7">GR-01-03</text><clipPath id="cl"><path d="M128 70 L272 70 L276 92 C290 210 306 330 318 446 L214 452 L200 196 L186 452 L82 446 C94 330 110 210 124 92 Z"/></clipPath><path d="M128 70 L272 70 L276 92 C290 210 306 330 318 446 L214 452 L200 196 L186 452 L82 446 C94 330 110 210 124 92 Z" fill="#A7A7A4"/><g clip-path="url(#cl)" filter="url(#soft)"><ellipse cx="154" cy="117" rx="55" ry="23" fill="#8f8f8c" opacity="0.28"/><ellipse cx="222" cy="406" rx="35" ry="23" fill="#C8C8C5" opacity="0.27"/><ellipse cx="94" cy="221" rx="62" ry="25" fill="#7E7E7B" opacity="0.44"/><ellipse cx="222" cy="84" rx="52" ry="22" fill="#7E7E7B" opacity="0.26"/><ellipse cx="293" cy="170" rx="32" ry="25" fill="#C8C8C5" opacity="0.42"/><ellipse cx="247" cy="99" rx="51" ry="28" fill="#7E7E7B" opacity="0.41"/><ellipse cx="86" cy="83" rx="35" ry="47" fill="#C8C8C5" opacity="0.48"/><ellipse cx="191" cy="411" rx="42" ry="30" fill="#7E7E7B" opacity="0.46"/><ellipse cx="133" cy="278" rx="49" ry="55" fill="#8f8f8c" opacity="0.38"/><ellipse cx="228" cy="88" rx="49" ry="27" fill="#C8C8C5" opacity="0.30"/><ellipse cx="197" cy="75" rx="55" ry="51" fill="#8f8f8c" opacity="0.49"/><ellipse cx="283" cy="189" rx="41" ry="40" fill="#C8C8C5" opacity="0.27"/></g><g clip-path="url(#cl)"><path d="M111 184 C75 201 122 224 130 172 C121 185 92 168 110 149 C75 170 80 128 103 171 M108 247 C138 273 137 229 103 239 C133 275 75 213 87 223 C85 230 68 183 82 215 C87 251 97 216 89 225 C53 257 111 255 107 219 M178 126 C143 92 154 99 168 99 C128 71 136 88 140 122 C149 94 120 110 132 99 C159 139 129 98 107 75 C94 57 133 48 78 102 C80 74 82 65 80 131 M280 334 C281 366 268 311 282 334 C293 343 305 354 264 318 C256 342 240 318 278 348 C301 345 253 356 269 366 C287 354 307 333 245 364 M164 259 C163 271 188 226 174 284 C197 304 172 258 191 273 C215 311 183 266 218 287 M127 134 C135 132 140 143 133 133 C168 105 137 95 151 147 C119 166 122 185 133 169 C95 146 133 190 122 172 M274 111 C305 124 299 113 293 134 C264 106 294 164 310 141 C332 113 281 150 287 114 C302 117 286 136 310 88 C285 51 278 84 282 111 M104 204 C119 200 107 202 130 216 C161 251 111 221 157 236 C128 206 152 202 141 211 C155 233 173 183 154 220 M121 399 C99 435 113 398 151 419 C124 413 152 406 133 408 C150 370 137 403 104 398 C114 399 69 437 121 426 C89 407 84 449 107 404 C101 437 133 385 86 429 M216 335 C198 359 190 367 202 306 C169 287 210 284 188 283 C148 323 181 317 195 256 M246 418 C227 393 281 429 248 401 C244 414 230 425 278 373 C239 373 316 374 262 370 C275 382 275 373 286 398 M158 165 C145 192 174 176 152 156 C116 127 118 175 137 136 C104 163 167 150 124 120 C108 117 97 116 110 148 M304 281 C267 312 281 256 294 257 C276 269 274 279 270 276 C241 282 261 260 277 251 C314 279 250 282 294 256 M258 342 C230 360 270 306 278 366 C288 384 303 337 280 366 C306 390 306 373 303 377 C319 355 266 348 295 353 C322 358 305 363 306 353 C266 376 326 353 308 362 M105 348 C129 376 83 368 88 357 C85 385 55 390 76 330 C86 306 84 316 85 341 C94 312 83 340 113 317 C90 316 130 300 111 333 M309 282 C347 317 270 279 328 310 C324 292 305 346 310 315 C282 317 347 286 330 316 C361 332 308 347 329 287 C289 287 325 271 307 278 M160 384 C146 371 151 419 141 355 C160 335 106 346 163 329 C198 350 192 312 137 339 M230 142 C225 127 252 165 225 114 C246 106 255 118 208 89 C242 82 217 60 230 88 C263 92 203 81 217 73 C236 85 209 52 216 83 M116 315 C93 348 116 293 141 345 C137 316 116 312 131 320 C110 301 137 351 146 315 M181 273 C163 294 181 279 173 285 C175 308 201 252 196 278 C208 272 181 303 225 255 C219 276 249 293 224 230 C258 264 226 227 221 247 C199 219 259 215 240 259 M276 403 C280 366 299 382 301 412 C286 382 282 423 313 389 C279 391 320 380 297 395 M92 196 C75 181 119 175 94 198 C56 191 106 163 76 221 C87 188 54 215 68 221 C83 238 57 213 38 209 C66 174 38 185 54 190 C51 171 85 159 62 197 M287 260 C323 231 279 237 316 238 C280 203 307 270 339 252 C378 287 325 227 365 267 M97 323 C124 361 92 291 72 297 C65 328 77 318 65 314 C49 338 32 330 46 316 C42 302 65 314 54 301 C64 293 44 298 72 275 C48 240 81 264 62 302 M100 351 C134 335 117 359 118 378 C83 404 87 395 116 395 C139 428 141 365 116 365 C150 349 131 337 100 387 C97 410 107 388 93 366 M180 317 C184 303 218 348 209 303 C176 271 209 320 206 287 C199 297 220 307 227 297 C196 324 210 303 219 311 C195 291 199 284 242 316 C228 308 281 317 226 335 M234 437 C194 467 212 433 226 459 C205 423 234 486 208 434 C209 408 216 456 218 404 M230 338 C208 328 202 315 216 344 C228 321 176 331 226 325 C211 302 250 329 200 302 C192 306 211 269 180 313 C173 296 164 350 169 317 M169 236 C180 227 161 271 165 215 C134 182 171 204 181 193 C145 164 206 185 185 219 C204 192 173 192 166 193 C156 213 189 217 154 213 M100 409 C64 444 91 442 107 429 C80 452 85 421 128 449 C102 426 120 450 121 426 C100 444 152 389 124 442 C87 469 94 449 127 449 M157 237 C151 250 153 232 129 244 C128 223 150 267 126 225 C124 193 97 219 102 221 C103 185 113 188 116 238 M203 109 C215 132 165 74 209 121 C178 91 240 104 228 138 C243 156 206 165 235 123 C221 132 267 120 220 151 C218 159 229 130 212 133 C205 144 195 119 205 151 M148 359 C159 348 178 363 153 382 C121 421 163 373 171 368 C210 374 160 389 167 348 M254 107 C238 144 283 141 277 121 C297 99 261 131 272 113 C236 112 281 76 246 117 C230 119 248 110 234 95 C223 121 206 56 252 107 M189 112 C219 135 181 93 160 121 C165 109 172 116 186 135 C166 167 150 138 180 119 C145 142 141 123 207 98 M134 303 C159 277 119 287 107 326 C129 343 67 354 122 324 C141 320 100 293 105 296 C92 316 121 324 118 282 C122 277 141 284 104 291 C141 268 134 252 90 275 M254 421 C229 412 262 411 275 446 C313 473 278 444 277 416 C239 453 255 447 294 410 C301 415 268 372 271 417 C244 455 287 380 249 426 M99 114 C65 121 88 139 119 137 C84 167 152 173 95 120 C64 82 123 145 103 139 M229 191 C200 214 241 174 219 176 C207 211 183 197 244 192 C252 190 227 212 261 164 M204 124 C220 127 181 153 180 144 C153 104 156 165 208 114 C207 113 232 89 208 105 C234 86 243 87 191 117 C191 85 202 83 208 128 C231 139 197 121 202 152 M109 401 C99 385 103 405 89 430 C100 465 59 437 101 436 C63 443 102 466 98 439 M161 252 C167 222 158 283 145 234 C130 250 173 206 125 218 C111 220 98 205 106 247 C124 215 143 215 99 276 C123 295 94 252 107 252 M135 226 C96 254 130 204 164 214 C126 194 183 174 149 235 C165 242 161 263 159 244 M283 315 C297 326 279 300 291 290 C284 313 308 301 276 286 C272 296 269 300 302 267 C314 289 293 266 330 239 M210 146 C211 114 216 150 223 147 C234 173 224 140 249 130 C264 121 270 99 279 121 C243 103 270 82 274 116 M244 213 C212 198 236 250 272 243 C309 240 245 277 246 261 C221 272 264 286 225 271 C251 294 218 310 240 280 C263 277 263 258 253 291" fill="none" stroke="#FF4D4D" stroke-width="1" vector-effect="non-scaling-stroke" opacity=".9"/></g><path d="M124 92 L276 92 M140 70 L140 96 M170 70 L170 96 M230 70 L230 96 M260 70 L260 96 M200 92 L200 190 M210 92 L210 160 C210 172 205 180 200 184 M130 100 C146 124 166 128 176 94 M270 100 C254 124 234 128 224 94 M240 101 L258 101 L257 117 L241 117 Z M88 430 L189 437 M211 437 L312 430 M152 210 C146 300 140 380 134 444 M248 210 C254 300 260 380 266 444" fill="none" stroke="#555" stroke-width="1.1" stroke-linecap="round" vector-effect="non-scaling-stroke" opacity=".75"/><path d="M128 70 L272 70 L276 92 C290 210 306 330 318 446 L214 452 L200 196 L186 452 L82 446 C94 330 110 210 124 92 Z" fill="none" stroke="#111111" stroke-width="1.6" stroke-linejoin="round" vector-effect="non-scaling-stroke"/><g transform="rotate(-11 200 446)"><rect x="-80" y="429" width="560" height="34" fill="#00DB24"/><rect x="-80" y="429" width="560" height="34" fill="url(#tapeShade)"/><text x="-40" y="452" font-family="'Arial Black','Helvetica Neue',Arial,sans-serif" font-weight="900" font-size="15" letter-spacing=".5" fill="#000">  ФОТО СКОРО  ·  ФОТО СКОРО  ·  ФОТО СКОРО  ·  ФОТО СКОРО  ·  ФОТО СКОРО  ·  ФОТО СКОРО  ·</text></g></svg>